<?xml version="1.0" encoding="iso-8859-1"?>
<!-- Generator: Adobe Illustrator 19.0.0, SVG Export Plug-In . SVG Version: 6.00 Build 0)  -->
<svg version="1.1" id="Layer_1" xmlns="http://www.w3.org/2000/svg" xmlns:xlink="http://www.w3.org/1999/xlink" x="0px" y="0px"
	 viewBox="0 0 512 512" style="enable-background:new 0 0 512 512;" xml:space="preserve">
<g>
	<g>
		<path d="M498.705,130.29c-11.825-1.353-253.038-28.95-263.906-30.193c-1.787-0.204-3.789-0.038-5.345,0.351L121.36,127.484
			c-6.677,1.67-11.36,7.669-11.36,14.552v11.003L65,179.02V97.698C85.264,91.312,100,72.346,100,50c0-27.57-22.43-50-50-50
			S0,22.43,0,50c0,22.346,14.736,41.312,35,47.698V497c0,8.284,6.716,15,15,15s15-6.716,15-15V230.981l45,25.981v11.003
			c0,6.882,4.684,12.882,11.36,14.552l108.094,27.036c1.644,0.411,3.542,0.557,5.345,0.351
			c4.416-0.505,259.477-29.686,263.906-30.193c7.575-0.867,13.295-7.278,13.295-14.903V145.193
			C512,137.568,506.28,131.157,498.705,130.29z M50,70c-11.028,0-20-8.972-20-20s8.972-20,20-20s20,8.972,20,20S61.028,70,50,70z
			 M110,222.32L80,205l30-17.321V222.32z M218.094,275.787L140,256.253V153.747l78.094-19.533V275.787z M313.798,270.669
			l-65.704,7.517V131.814l65.704,7.517V270.669z M406.542,260.059l-62.744,7.179V142.763l62.744,7.179V260.059z M482,251.425
			l-45.458,5.201V153.374L482,158.575V251.425z"/>
	</g>
</g>
<g>
</g>
<g>
</g>
<g>
</g>
<g>
</g>
<g>
</g>
<g>
</g>
<g>
</g>
<g>
</g>
<g>
</g>
<g>
</g>
<g>
</g>
<g>
</g>
<g>
</g>
<g>
</g>
<g>
</g>
</svg>
